<svg width="110" height="44" viewBox="0 0 110 44" fill="none" xmlns="http://www.w3.org/2000/svg">
<path fill-rule="evenodd" clip-rule="evenodd" d="M14.3 0L0 14.3V29.7L14.3 44H29.7L44 29.7L36.3 22L44 14.3L29.7 0H14.3ZM14.3 0L36.3 22L14.3 44V0Z" fill="url(#paint0_linear_19497_1038)"/>
<path d="M57.9783 20.1373L54.3227 15.3353V20.1373H51.6738V9.26318H54.3227V14.0342L57.9474 9.26318H61.0609L56.8476 14.5918L61.2158 20.1373H57.9783Z" fill="url(#paint1_linear_19497_1038)"/>
<path d="M61.9479 15.8C61.9479 14.9119 62.1132 14.1323 62.4436 13.461C62.7844 12.7898 63.244 12.2734 63.8223 11.912C64.4006 11.5506 65.046 11.3699 65.7585 11.3699C66.3678 11.3699 66.8996 11.4938 67.354 11.7416C67.8187 11.9895 68.175 12.3148 68.4228 12.7175V11.4938H71.0717V20.1373H68.4228V18.9136C68.1647 19.3163 67.8032 19.6416 67.3385 19.8895C66.8842 20.1373 66.3523 20.2612 65.743 20.2612C65.0408 20.2612 64.4006 20.0805 63.8223 19.7191C63.244 19.3473 62.7844 18.8258 62.4436 18.1546C62.1132 17.473 61.9479 16.6882 61.9479 15.8ZM68.4228 15.8155C68.4228 15.1546 68.237 14.6331 67.8652 14.251C67.5038 13.8689 67.0597 13.6779 66.533 13.6779C66.0064 13.6779 65.5572 13.8689 65.1854 14.251C64.824 14.6228 64.6432 15.1391 64.6432 15.8C64.6432 16.461 64.824 16.9876 65.1854 17.38C65.5572 17.7621 66.0064 17.9532 66.533 17.9532C67.0597 17.9532 67.5038 17.7621 67.8652 17.38C68.237 16.998 68.4228 16.4765 68.4228 15.8155Z" fill="url(#paint2_linear_19497_1038)"/>
<path d="M75.6368 12.9344C75.9466 12.4593 76.3339 12.0876 76.7986 11.8191C77.2633 11.5402 77.7796 11.4008 78.3476 11.4008V14.2046H77.6195C76.9586 14.2046 76.4629 14.3491 76.1325 14.6383C75.802 14.9171 75.6368 15.4128 75.6368 16.1253V20.1373H72.988V11.4938H75.6368V12.9344Z" fill="url(#paint3_linear_19497_1038)"/>
<path d="M79.087 15.8C79.087 14.9119 79.2522 14.1323 79.5827 13.461C79.9235 12.7898 80.383 12.2734 80.9613 11.912C81.5396 11.5506 82.185 11.3699 82.8976 11.3699C83.5069 11.3699 84.0387 11.4938 84.4931 11.7416C84.9578 11.9895 85.3141 12.3148 85.5619 12.7175V11.4938H88.2107V20.1373H85.5619V18.9136C85.3037 19.3163 84.9423 19.6416 84.4776 19.8895C84.0232 20.1373 83.4914 20.2612 82.8821 20.2612C82.1799 20.2612 81.5396 20.0805 80.9613 19.7191C80.383 19.3473 79.9235 18.8258 79.5827 18.1546C79.2522 17.473 79.087 16.6882 79.087 15.8ZM85.5619 15.8155C85.5619 15.1546 85.376 14.6331 85.0043 14.251C84.6428 13.8689 84.1988 13.6779 83.6721 13.6779C83.1454 13.6779 82.6962 13.8689 82.3245 14.251C81.963 14.6228 81.7823 15.1391 81.7823 15.8C81.7823 16.461 81.963 16.9876 82.3245 17.38C82.6962 17.7621 83.1454 17.9532 83.6721 17.9532C84.1988 17.9532 84.6428 17.7621 85.0043 17.38C85.376 16.998 85.5619 16.4765 85.5619 15.8155Z" fill="url(#paint4_linear_19497_1038)"/>
<path d="M51.6738 28.9404C51.6738 27.824 51.9153 26.8311 52.3984 25.9616C52.8814 25.0814 53.5523 24.3998 54.411 23.9167C55.2805 23.423 56.2627 23.1761 57.3576 23.1761C58.6994 23.1761 59.8479 23.5303 60.8033 24.2388C61.7586 24.9472 62.3973 25.9133 62.7193 27.137H59.6923C59.4669 26.6647 59.1448 26.3051 58.7262 26.0582C58.3183 25.8113 57.8514 25.6879 57.3254 25.6879C56.4774 25.6879 55.7904 25.9831 55.2644 26.5735C54.7384 27.1638 54.4755 27.9528 54.4755 28.9404C54.4755 29.9279 54.7384 30.7169 55.2644 31.3072C55.7904 31.8976 56.4774 32.1928 57.3254 32.1928C57.8514 32.1928 58.3183 32.0694 58.7262 31.8225C59.1448 31.5756 59.4669 31.216 59.6923 30.7437H62.7193C62.3973 31.9674 61.7586 32.9335 60.8033 33.6419C59.8479 34.3397 58.6994 34.6885 57.3576 34.6885C56.2627 34.6885 55.2805 34.447 54.411 33.964C53.5523 33.4702 52.8814 32.7886 52.3984 31.9191C51.9153 31.0496 51.6738 30.0567 51.6738 28.9404Z" fill="url(#paint5_linear_19497_1038)"/>
<path d="M68.4952 34.7368C67.615 34.7368 66.8206 34.549 66.1122 34.1733C65.4144 33.7976 64.8616 33.2609 64.4537 32.5631C64.0566 31.8654 63.858 31.0496 63.858 30.1157C63.858 29.1926 64.0619 28.3822 64.4698 27.6845C64.8777 26.976 65.4359 26.4339 66.1444 26.0582C66.8528 25.6825 67.6472 25.4947 68.5274 25.4947C69.4076 25.4947 70.2019 25.6825 70.9104 26.0582C71.6188 26.4339 72.177 26.976 72.5849 27.6845C72.9928 28.3822 73.1967 29.1926 73.1967 30.1157C73.1967 31.0389 72.9874 31.8547 72.5688 32.5631C72.1609 33.2609 71.5973 33.7976 70.8782 34.1733C70.1697 34.549 69.3754 34.7368 68.4952 34.7368ZM68.4952 32.3538C69.0211 32.3538 69.4666 32.1606 69.8316 31.7742C70.2073 31.3878 70.3951 30.8349 70.3951 30.1157C70.3951 29.3966 70.2126 28.8437 69.8477 28.4573C69.4934 28.0709 69.0533 27.8777 68.5274 27.8777C67.9907 27.8777 67.5452 28.0709 67.191 28.4573C66.8367 28.833 66.6596 29.3858 66.6596 30.1157C66.6596 30.8349 66.8314 31.3878 67.1749 31.7742C67.5291 32.1606 67.9692 32.3538 68.4952 32.3538Z" fill="url(#paint6_linear_19497_1038)"/>
<path d="M83.5293 25.6235V34.608H80.7759V33.3843C80.4968 33.7815 80.1158 34.1035 79.6327 34.3504C79.1604 34.5865 78.6345 34.7046 78.0548 34.7046C77.3678 34.7046 76.7613 34.5543 76.2354 34.2538C75.7094 33.9425 75.3015 33.497 75.0117 32.9174C74.7218 32.3377 74.5769 31.6561 74.5769 30.8725V25.6235H77.3141V30.5022C77.3141 31.1033 77.4698 31.5702 77.7811 31.903C78.0924 32.2358 78.511 32.4021 79.037 32.4021C79.5737 32.4021 79.9977 32.2358 80.309 31.903C80.6203 31.5702 80.7759 31.1033 80.7759 30.5022V25.6235H83.5293Z" fill="url(#paint7_linear_19497_1038)"/>
<path d="M88.2603 27.1209C88.5823 26.6271 88.9848 26.2407 89.4679 25.9616C89.9509 25.6718 90.4876 25.5269 91.078 25.5269V28.4412H90.3212C89.6342 28.4412 89.119 28.5915 88.7755 28.892C88.432 29.1819 88.2603 29.6971 88.2603 30.4378V34.608H85.5069V25.6235H88.2603V27.1209Z" fill="url(#paint8_linear_19497_1038)"/>
<path d="M96.049 34.7368C95.2654 34.7368 94.5677 34.6026 93.9559 34.3343C93.344 34.0659 92.861 33.701 92.5067 33.2394C92.1525 32.7671 91.9539 32.2411 91.911 31.6615H94.6321C94.6643 31.9728 94.8092 32.225 95.0668 32.4182C95.3245 32.6114 95.6411 32.7081 96.0168 32.7081C96.3603 32.7081 96.6233 32.6437 96.8058 32.5148C96.999 32.3753 97.0956 32.1982 97.0956 31.9835C97.0956 31.7259 96.9614 31.538 96.6931 31.42C96.4247 31.2911 95.99 31.1516 95.3889 31.0013C94.7448 30.851 94.2081 30.6954 93.7787 30.5344C93.3494 30.3626 92.979 30.0996 92.6677 29.7454C92.3565 29.3805 92.2008 28.892 92.2008 28.2802C92.2008 27.765 92.3404 27.298 92.6194 26.8794C92.9093 26.45 93.3279 26.1119 93.8753 25.865C94.4335 25.6181 95.0937 25.4947 95.8558 25.4947C96.9829 25.4947 97.8685 25.7738 98.5125 26.3319C99.1673 26.8901 99.543 27.6308 99.6396 28.5539H97.0956C97.0527 28.2426 96.9131 27.9957 96.677 27.8133C96.4516 27.6308 96.151 27.5395 95.7753 27.5395C95.4533 27.5395 95.2064 27.6039 95.0346 27.7328C94.8629 27.8508 94.777 28.0172 94.777 28.2319C94.777 28.4895 94.9112 28.6827 95.1796 28.8115C95.4586 28.9404 95.888 29.0692 96.4677 29.198C97.1332 29.3697 97.6753 29.5415 98.0939 29.7132C98.5125 29.8742 98.8775 30.1426 99.1888 30.5183C99.5108 30.8832 99.6772 31.377 99.6879 31.9996C99.6879 32.5256 99.5376 32.9979 99.2371 33.4165C98.9473 33.8244 98.5233 34.1464 97.9651 34.3826C97.4176 34.6187 96.7789 34.7368 96.049 34.7368Z" fill="url(#paint9_linear_19497_1038)"/>
<path d="M109.842 29.9708C109.842 30.2285 109.826 30.4968 109.793 30.7759H103.562C103.605 31.3341 103.782 31.7634 104.094 32.064C104.416 32.3538 104.807 32.4987 105.269 32.4987C105.956 32.4987 106.434 32.2089 106.702 31.6293H109.632C109.482 32.2197 109.208 32.751 108.811 33.2233C108.425 33.6956 107.936 34.0659 107.346 34.3343C106.756 34.6026 106.095 34.7368 105.366 34.7368C104.485 34.7368 103.702 34.549 103.015 34.1733C102.328 33.7976 101.791 33.2609 101.405 32.5631C101.018 31.8654 100.825 31.0496 100.825 30.1157C100.825 29.1819 101.013 28.3661 101.388 27.6683C101.775 26.9706 102.312 26.4339 102.999 26.0582C103.686 25.6825 104.475 25.4947 105.366 25.4947C106.235 25.4947 107.008 25.6772 107.684 26.0421C108.36 26.4071 108.886 26.9277 109.262 27.6039C109.648 28.2802 109.842 29.0692 109.842 29.9708ZM107.024 29.2463C107.024 28.774 106.863 28.3983 106.541 28.1192C106.219 27.8401 105.816 27.7006 105.333 27.7006C104.872 27.7006 104.48 27.8347 104.158 28.1031C103.847 28.3714 103.653 28.7525 103.578 29.2463H107.024Z" fill="url(#paint10_linear_19497_1038)"/>
<defs>
<linearGradient id="paint0_linear_19497_1038" x1="0" y1="0" x2="44" y2="46.0083" gradientUnits="userSpaceOnUse">
<stop stop-color="#5846fb"/>
<stop offset="0.4965" stop-color="#5846fb"/>
<stop offset="1" stop-color="#5846fb"/>
</linearGradient>
<linearGradient id="paint1_linear_19497_1038" x1="58.5247" y1="27.2473" x2="82.6483" y2="3.59087" gradientUnits="userSpaceOnUse">
<stop offset="0.115" stop-color="#F2F4F5"/>
<stop offset="0.704044" stop-color="#9DB3E2"/>
<stop offset="1" stop-color="#2E7BE7"/>
</linearGradient>
<linearGradient id="paint2_linear_19497_1038" x1="58.5247" y1="27.2473" x2="82.6483" y2="3.59087" gradientUnits="userSpaceOnUse">
<stop offset="0.115" stop-color="#F2F4F5"/>
<stop offset="0.704044" stop-color="#9DB3E2"/>
<stop offset="1" stop-color="#2E7BE7"/>
</linearGradient>
<linearGradient id="paint3_linear_19497_1038" x1="58.5247" y1="27.2473" x2="82.6483" y2="3.59087" gradientUnits="userSpaceOnUse">
<stop offset="0.115" stop-color="#F2F4F5"/>
<stop offset="0.704044" stop-color="#9DB3E2"/>
<stop offset="1" stop-color="#2E7BE7"/>
</linearGradient>
<linearGradient id="paint4_linear_19497_1038" x1="58.5247" y1="27.2473" x2="82.6483" y2="3.59087" gradientUnits="userSpaceOnUse">
<stop offset="0.115" stop-color="#F2F4F5"/>
<stop offset="0.704044" stop-color="#9DB3E2"/>
<stop offset="1" stop-color="#2E7BE7"/>
</linearGradient>
<linearGradient id="paint5_linear_19497_1038" x1="62.5806" y1="42.0804" x2="86.0806" y2="7.1777" gradientUnits="userSpaceOnUse">
<stop offset="0.115" stop-color="#F2F4F5"/>
<stop offset="0.704044" stop-color="#9DB3E2"/>
<stop offset="1" stop-color="#2E7BE7"/>
</linearGradient>
<linearGradient id="paint6_linear_19497_1038" x1="62.5806" y1="42.0804" x2="86.0806" y2="7.1777" gradientUnits="userSpaceOnUse">
<stop offset="0.115" stop-color="#F2F4F5"/>
<stop offset="0.704044" stop-color="#9DB3E2"/>
<stop offset="1" stop-color="#2E7BE7"/>
</linearGradient>
<linearGradient id="paint7_linear_19497_1038" x1="62.5806" y1="42.0804" x2="86.0806" y2="7.1777" gradientUnits="userSpaceOnUse">
<stop offset="0.115" stop-color="#F2F4F5"/>
<stop offset="0.704044" stop-color="#9DB3E2"/>
<stop offset="1" stop-color="#2E7BE7"/>
</linearGradient>
<linearGradient id="paint8_linear_19497_1038" x1="62.5806" y1="42.0804" x2="86.0806" y2="7.1777" gradientUnits="userSpaceOnUse">
<stop offset="0.115" stop-color="#F2F4F5"/>
<stop offset="0.704044" stop-color="#9DB3E2"/>
<stop offset="1" stop-color="#2E7BE7"/>
</linearGradient>
<linearGradient id="paint9_linear_19497_1038" x1="62.5806" y1="42.0804" x2="86.0806" y2="7.1777" gradientUnits="userSpaceOnUse">
<stop offset="0.115" stop-color="#F2F4F5"/>
<stop offset="0.704044" stop-color="#9DB3E2"/>
<stop offset="1" stop-color="#2E7BE7"/>
</linearGradient>
<linearGradient id="paint10_linear_19497_1038" x1="62.5806" y1="42.0804" x2="86.0806" y2="7.1777" gradientUnits="userSpaceOnUse">
<stop offset="0.115" stop-color="#F2F4F5"/>
<stop offset="0.704044" stop-color="#9DB3E2"/>
<stop offset="1" stop-color="#2E7BE7"/>
</linearGradient>
</defs>
</svg>
